<?xml version="1.0" encoding="utf-8"?>
<!-- Generator: Adobe Illustrator 27.3.1, SVG Export Plug-In . SVG Version: 6.00 Build 0)  -->
<svg version="1.1" id="Layer_1" xmlns="http://www.w3.org/2000/svg" xmlns:xlink="http://www.w3.org/1999/xlink" x="0px" y="0px"
	 viewBox="0 0 1000 1000" style="enable-background:new 0 0 1000 1000;" xml:space="preserve">
<style type="text/css">
	.st0{fill:#E6E7E8;}
</style>
<path class="st0" d="M333.77,214.56h-4H222.4h-4H107.02v41.39v4v37.39v4v37.39v4v41.39H218.4h4h107.37h4h111.37v-41.39v-4v-37.39v-4
	v-37.39v-4v-41.39H333.77z M222.4,218.56h107.37v37.39H222.4V218.56z M329.77,297.33H222.4v-37.39h107.37V297.33z M329.77,338.72
	H222.4v-37.39h107.37V338.72z M111.02,218.56H218.4v37.39H111.02V218.56z M111.02,259.94H218.4v37.39H111.02V259.94z M111.02,301.33
	H218.4v37.39H111.02V301.33z M218.4,380.11H111.02v-37.39H218.4V380.11z M329.77,380.11H222.4v-37.39h107.37V380.11z M441.14,380.11
	H333.77v-37.39h107.37V380.11z M441.14,338.72H333.77v-37.39h107.37V338.72z M441.14,297.33H333.77v-37.39h107.37V297.33z
	 M333.77,255.94v-37.39h107.37v37.39H333.77z"/>
<g>
	<path class="st0" d="M454.14,561.47c-2.06-0.84-3.7-2.09-4.93-3.74c-1.23-1.65-1.88-3.64-1.95-5.96h9.2
		c0.13,1.31,0.59,2.32,1.36,3.01c0.77,0.69,1.79,1.04,3.03,1.04c1.28,0,2.29-0.29,3.03-0.88s1.11-1.41,1.11-2.45
		c0-0.88-0.3-1.6-0.88-2.17c-0.59-0.57-1.31-1.04-2.17-1.42c-0.86-0.37-2.08-0.79-3.66-1.26c-2.29-0.71-4.16-1.42-5.61-2.12
		c-1.45-0.71-2.7-1.75-3.74-3.13c-1.04-1.38-1.57-3.18-1.57-5.41c0-3.3,1.2-5.89,3.59-7.76c2.39-1.87,5.51-2.81,9.35-2.81
		c3.91,0,7.06,0.94,9.45,2.81c2.39,1.87,3.67,4.47,3.84,7.81h-9.35c-0.07-1.14-0.49-2.05-1.26-2.7c-0.78-0.66-1.77-0.99-2.98-0.99
		c-1.04,0-1.89,0.28-2.53,0.83c-0.64,0.56-0.96,1.36-0.96,2.4c0,1.15,0.54,2.04,1.62,2.68c1.08,0.64,2.76,1.33,5.05,2.07
		c2.29,0.78,4.15,1.52,5.58,2.22c1.43,0.71,2.67,1.74,3.71,3.08c1.04,1.35,1.57,3.08,1.57,5.21c0,2.02-0.51,3.86-1.54,5.51
		c-1.03,1.65-2.52,2.96-4.47,3.94c-1.96,0.98-4.26,1.47-6.92,1.47C458.52,562.73,456.2,562.31,454.14,561.47z"/>
	<path class="st0" d="M505.79,550.35h-19.56c0.13,1.75,0.7,3.09,1.69,4.02c0.99,0.93,2.21,1.39,3.66,1.39c2.16,0,3.66-0.91,4.5-2.73
		h9.2c-0.47,1.85-1.32,3.52-2.55,5c-1.23,1.48-2.77,2.65-4.62,3.49c-1.85,0.84-3.93,1.26-6.22,1.26c-2.76,0-5.22-0.59-7.38-1.77
		s-3.84-2.86-5.05-5.05c-1.21-2.19-1.82-4.75-1.82-7.68s0.6-5.49,1.79-7.68s2.87-3.87,5.03-5.05c2.16-1.18,4.63-1.77,7.43-1.77
		c2.73,0,5.16,0.57,7.28,1.72c2.12,1.15,3.78,2.78,4.98,4.9c1.2,2.12,1.79,4.6,1.79,7.43C505.94,548.63,505.89,549.48,505.79,550.35
		z M497.1,545.55c0-1.48-0.51-2.66-1.52-3.54s-2.27-1.31-3.79-1.31c-1.45,0-2.67,0.42-3.66,1.26c-0.99,0.84-1.61,2.04-1.84,3.59
		H497.1z"/>
	<path class="st0" d="M519.13,524.98v37.4h-8.64v-37.4H519.13z"/>
	<path class="st0" d="M551.83,550.35h-19.56c0.13,1.75,0.7,3.09,1.69,4.02c0.99,0.93,2.21,1.39,3.66,1.39c2.16,0,3.66-0.91,4.5-2.73
		h9.2c-0.47,1.85-1.32,3.52-2.55,5c-1.23,1.48-2.77,2.65-4.62,3.49c-1.85,0.84-3.93,1.26-6.22,1.26c-2.76,0-5.22-0.59-7.38-1.77
		s-3.84-2.86-5.05-5.05c-1.21-2.19-1.82-4.75-1.82-7.68s0.6-5.49,1.79-7.68s2.87-3.87,5.03-5.05c2.16-1.18,4.63-1.77,7.43-1.77
		c2.73,0,5.16,0.57,7.28,1.72c2.12,1.15,3.78,2.78,4.98,4.9c1.2,2.12,1.79,4.6,1.79,7.43C551.98,548.63,551.93,549.48,551.83,550.35
		z M543.14,545.55c0-1.48-0.51-2.66-1.52-3.54s-2.27-1.31-3.79-1.31c-1.45,0-2.67,0.42-3.66,1.26c-0.99,0.84-1.61,2.04-1.84,3.59
		H543.14z"/>
	<path class="st0" d="M556.61,540.6c1.2-2.19,2.86-3.87,5-5.05c2.14-1.18,4.59-1.77,7.35-1.77c3.54,0,6.49,0.93,8.87,2.78
		c2.38,1.85,3.93,4.46,4.67,7.83h-9.2c-0.78-2.16-2.27-3.23-4.5-3.23c-1.58,0-2.85,0.62-3.79,1.84c-0.94,1.23-1.42,2.99-1.42,5.28
		c0,2.29,0.47,4.05,1.42,5.28c0.94,1.23,2.21,1.84,3.79,1.84c2.22,0,3.72-1.08,4.5-3.23h9.2c-0.74,3.3-2.31,5.9-4.7,7.78
		c-2.39,1.89-5.34,2.83-8.84,2.83c-2.76,0-5.21-0.59-7.35-1.77c-2.14-1.18-3.81-2.86-5-5.05c-1.2-2.19-1.79-4.75-1.79-7.68
		S555.41,542.79,556.61,540.6z"/>
	<path class="st0" d="M602.83,555.05v7.33h-4.4c-3.13,0-5.58-0.77-7.33-2.3c-1.75-1.53-2.63-4.03-2.63-7.5v-11.22h-3.44v-7.18h3.44
		v-6.87h8.64v6.87h5.66v7.18h-5.66v11.32c0,0.84,0.2,1.45,0.61,1.82s1.08,0.56,2.02,0.56H602.83z"/>
	<path class="st0" d="M618.27,540.6c1.09-2.19,2.58-3.87,4.47-5.05c1.89-1.18,3.99-1.77,6.32-1.77c1.99,0,3.73,0.4,5.23,1.21
		c1.5,0.81,2.65,1.87,3.46,3.18v-3.99h8.64v28.2h-8.64v-3.99c-0.84,1.31-2.01,2.38-3.51,3.18c-1.5,0.81-3.24,1.21-5.23,1.21
		c-2.29,0-4.38-0.6-6.27-1.79c-1.89-1.2-3.38-2.9-4.47-5.1c-1.1-2.21-1.64-4.76-1.64-7.66C616.62,545.33,617.17,542.79,618.27,540.6
		z M635.95,543.18c-1.2-1.25-2.65-1.87-4.37-1.87c-1.72,0-3.18,0.62-4.37,1.84c-1.2,1.23-1.79,2.92-1.79,5.08
		c0,2.16,0.6,3.87,1.79,5.13c1.2,1.26,2.65,1.9,4.37,1.9c1.72,0,3.17-0.62,4.37-1.87c1.2-1.25,1.79-2.95,1.79-5.1
		C637.75,546.12,637.15,544.42,635.95,543.18z"/>
	<path class="st0" d="M668.27,561.52c-1.92-0.84-3.44-2-4.55-3.46c-1.11-1.47-1.74-3.11-1.87-4.93h8.54
		c0.1,0.98,0.56,1.77,1.37,2.38s1.8,0.91,2.98,0.91c1.08,0,1.91-0.21,2.5-0.63c0.59-0.42,0.88-0.97,0.88-1.64
		c0-0.81-0.42-1.41-1.26-1.79c-0.84-0.39-2.21-0.82-4.09-1.29c-2.02-0.47-3.71-0.97-5.05-1.49s-2.51-1.35-3.49-2.48
		s-1.46-2.65-1.46-4.57c0-1.62,0.45-3.09,1.34-4.42c0.89-1.33,2.21-2.38,3.94-3.16c1.73-0.77,3.8-1.16,6.19-1.16
		c3.54,0,6.33,0.88,8.36,2.63c2.04,1.75,3.21,4.08,3.51,6.97h-7.99c-0.13-0.98-0.56-1.75-1.29-2.33c-0.73-0.57-1.68-0.86-2.86-0.86
		c-1.01,0-1.79,0.19-2.33,0.58c-0.54,0.39-0.81,0.92-0.81,1.59c0,0.81,0.43,1.42,1.29,1.82c0.86,0.4,2.2,0.81,4.02,1.21
		c2.09,0.54,3.79,1.07,5.1,1.59c1.31,0.52,2.47,1.37,3.46,2.53c0.99,1.16,1.51,2.72,1.54,4.67c0,1.65-0.46,3.13-1.39,4.42
		c-0.93,1.3-2.26,2.32-3.99,3.06c-1.74,0.74-3.75,1.11-6.04,1.11C672.38,562.79,670.19,562.36,668.27,561.52z"/>
	<path class="st0" d="M718,550.35h-19.56c0.13,1.75,0.7,3.09,1.69,4.02c0.99,0.93,2.21,1.39,3.66,1.39c2.16,0,3.66-0.91,4.5-2.73
		h9.2c-0.47,1.85-1.32,3.52-2.55,5c-1.23,1.48-2.77,2.65-4.62,3.49c-1.85,0.84-3.93,1.26-6.22,1.26c-2.76,0-5.22-0.59-7.38-1.77
		s-3.84-2.86-5.05-5.05c-1.21-2.19-1.82-4.75-1.82-7.68s0.6-5.49,1.79-7.68s2.87-3.87,5.03-5.05c2.16-1.18,4.63-1.77,7.43-1.77
		c2.73,0,5.16,0.57,7.28,1.72c2.12,1.15,3.78,2.78,4.98,4.9c1.2,2.12,1.79,4.6,1.79,7.43C718.16,548.63,718.11,549.48,718,550.35z
		 M709.31,545.55c0-1.48-0.51-2.66-1.52-3.54s-2.27-1.31-3.79-1.31c-1.45,0-2.67,0.42-3.66,1.26c-0.99,0.84-1.61,2.04-1.84,3.59
		H709.31z"/>
	<path class="st0" d="M738.42,555.05v7.33h-4.4c-3.13,0-5.58-0.77-7.33-2.3c-1.75-1.53-2.63-4.03-2.63-7.5v-11.22h-3.44v-7.18h3.44
		v-6.87h8.64v6.87h5.66v7.18h-5.66v11.32c0,0.84,0.2,1.45,0.61,1.82s1.08,0.56,2.02,0.56H738.42z"/>
	<path class="st0" d="M758.94,555.05v7.33h-4.4c-3.13,0-5.58-0.77-7.33-2.3c-1.75-1.53-2.63-4.03-2.63-7.5v-11.22h-3.44v-7.18h3.44
		v-6.87h8.64v6.87h5.66v7.18h-5.66v11.32c0,0.84,0.2,1.45,0.61,1.82s1.08,0.56,2.02,0.56H758.94z"/>
	<path class="st0" d="M764.37,529.91c-0.96-0.89-1.44-2-1.44-3.31c0-1.35,0.48-2.47,1.44-3.36c0.96-0.89,2.2-1.34,3.71-1.34
		c1.48,0,2.7,0.45,3.66,1.34c0.96,0.89,1.44,2.01,1.44,3.36c0,1.31-0.48,2.42-1.44,3.31c-0.96,0.89-2.18,1.34-3.66,1.34
		C766.57,531.25,765.33,530.8,764.37,529.91z M772.38,534.18v28.2h-8.64v-28.2H772.38z"/>
	<path class="st0" d="M803.74,537.09c1.97,2.14,2.96,5.08,2.96,8.82v16.48h-8.59v-15.31c0-1.89-0.49-3.35-1.46-4.4
		c-0.98-1.04-2.29-1.57-3.94-1.57c-1.65,0-2.97,0.52-3.94,1.57c-0.98,1.04-1.47,2.51-1.47,4.4v15.31h-8.64v-28.2h8.64v3.74
		c0.88-1.25,2.05-2.23,3.54-2.96c1.48-0.72,3.15-1.09,5-1.09C799.13,533.88,801.77,534.95,803.74,537.09z"/>
	<path class="st0" d="M828.66,534.99c1.5,0.81,2.65,1.87,3.46,3.18v-3.99h8.64v28.15c0,2.59-0.51,4.94-1.54,7.05
		c-1.03,2.11-2.59,3.78-4.7,5.03c-2.11,1.25-4.73,1.87-7.86,1.87c-4.18,0-7.56-0.99-10.16-2.96c-2.59-1.97-4.08-4.64-4.45-8.01h8.54
		c0.27,1.08,0.91,1.93,1.92,2.55c1.01,0.62,2.26,0.94,3.74,0.94c1.79,0,3.21-0.51,4.27-1.54c1.06-1.03,1.59-2.67,1.59-4.93v-3.99
		c-0.84,1.31-2.01,2.38-3.49,3.21c-1.48,0.83-3.22,1.24-5.21,1.24c-2.32,0-4.43-0.6-6.32-1.79c-1.89-1.2-3.38-2.9-4.47-5.1
		c-1.1-2.21-1.64-4.76-1.64-7.66c0-2.9,0.55-5.44,1.64-7.63c1.09-2.19,2.58-3.87,4.47-5.05c1.89-1.18,3.99-1.77,6.32-1.77
		C825.42,533.78,827.16,534.18,828.66,534.99z M830.33,543.18c-1.2-1.25-2.65-1.87-4.37-1.87c-1.72,0-3.18,0.62-4.37,1.84
		c-1.2,1.23-1.79,2.92-1.79,5.08c0,2.16,0.6,3.87,1.79,5.13c1.2,1.26,2.65,1.9,4.37,1.9c1.72,0,3.17-0.62,4.37-1.87
		c1.2-1.25,1.79-2.95,1.79-5.1C832.12,546.12,831.52,544.42,830.33,543.18z"/>
	<path class="st0" d="M866.38,524.98v37.4h-8.64v-37.4H866.38z"/>
	<path class="st0" d="M873.28,529.91c-0.96-0.89-1.44-2-1.44-3.31c0-1.35,0.48-2.47,1.44-3.36c0.96-0.89,2.2-1.34,3.71-1.34
		c1.48,0,2.7,0.45,3.66,1.34c0.96,0.89,1.44,2.01,1.44,3.36c0,1.31-0.48,2.42-1.44,3.31c-0.96,0.89-2.18,1.34-3.66,1.34
		C875.48,531.25,874.24,530.8,873.28,529.91z M881.29,534.18v28.2h-8.64v-28.2H881.29z"/>
	<path class="st0" d="M892.46,561.52c-1.92-0.84-3.44-2-4.55-3.46c-1.11-1.47-1.74-3.11-1.87-4.93h8.54
		c0.1,0.98,0.56,1.77,1.37,2.38s1.8,0.91,2.98,0.91c1.08,0,1.91-0.21,2.5-0.63c0.59-0.42,0.88-0.97,0.88-1.64
		c0-0.81-0.42-1.41-1.26-1.79c-0.84-0.39-2.21-0.82-4.09-1.29c-2.02-0.47-3.71-0.97-5.05-1.49s-2.51-1.35-3.49-2.48
		s-1.46-2.65-1.46-4.57c0-1.62,0.45-3.09,1.34-4.42c0.89-1.33,2.21-2.38,3.94-3.16c1.73-0.77,3.8-1.16,6.19-1.16
		c3.54,0,6.33,0.88,8.36,2.63c2.04,1.75,3.21,4.08,3.51,6.97h-7.99c-0.13-0.98-0.56-1.75-1.29-2.33c-0.73-0.57-1.68-0.86-2.86-0.86
		c-1.01,0-1.79,0.19-2.33,0.58c-0.54,0.39-0.81,0.92-0.81,1.59c0,0.81,0.43,1.42,1.29,1.82c0.86,0.4,2.2,0.81,4.02,1.21
		c2.09,0.54,3.79,1.07,5.1,1.59c1.31,0.52,2.47,1.37,3.46,2.53c0.99,1.16,1.51,2.72,1.54,4.67c0,1.65-0.46,3.13-1.39,4.42
		c-0.93,1.3-2.26,2.32-3.99,3.06c-1.74,0.74-3.75,1.11-6.04,1.11C896.57,562.79,894.38,562.36,892.46,561.52z"/>
	<path class="st0" d="M931.48,555.05v7.33h-4.4c-3.13,0-5.58-0.77-7.33-2.3c-1.75-1.53-2.63-4.03-2.63-7.5v-11.22h-3.44v-7.18h3.44
		v-6.87h8.64v6.87h5.66v7.18h-5.66v11.32c0,0.84,0.2,1.45,0.61,1.82s1.08,0.56,2.02,0.56H931.48z"/>
</g>
<path class="st0" d="M428.22,582.87v-73.57h344.74c19.59-38.14,30.64-81.37,30.64-127.2c0-153.98-124.83-278.81-278.81-278.81
	c-82.91,0-157.35,36.2-208.42,93.64h147.95v204.77H246.67c10.07,144.83,130.72,259.2,278.11,259.2
	c75.13,0,143.31-29.73,193.45-78.05H428.22z"/>
</svg>
